<?xml version="1.0" encoding="utf-8"?>
<!-- Generator: Adobe Illustrator 24.2.0, SVG Export Plug-In . SVG Version: 6.00 Build 0)  -->
<svg version="1.1" id="Layer_1" xmlns="http://www.w3.org/2000/svg" xmlns:xlink="http://www.w3.org/1999/xlink" x="0px" y="0px"
	 viewBox="0 0 1000 1000" style="enable-background:new 0 0 1000 1000;" xml:space="preserve">
<style type="text/css">
	.st0{fill:#003478;}
	.st1{fill:#FFFFFF;}
</style>
<rect class="st0" width="1000" height="1000"/>
<g id="Layer_2">
	<g>
		<path class="st1" d="M655.1,621.9l2.4-15.4c0.6-3.6,1.6-6.8,3-9.7c1.4-2.9,3.1-5.4,5.2-7.4c2.1-2.1,4.4-3.6,7-4.8
			c2.6-1.1,5.5-1.7,8.5-1.7c4.4,0,7.8,1,10.1,3.1c2.3,2.1,3.7,4.9,4.1,8.5h0.9l1.7-10.5h9.1l-7.5,47.6c-0.3,1.5-0.1,2.6,0.6,3.4
			c0.7,0.8,1.7,1.2,3,1.2h4.7l-1.3,8.6h-7c-3.2,0-5.6-1-7.4-3c-1.8-2-2.5-4.6-2.1-7.8h-0.9c-1.5,3.6-3.7,6.4-6.8,8.5
			c-3,2.1-6.8,3.1-11.2,3.1c-6.1,0-10.6-2.1-13.4-6.4S654,629.1,655.1,621.9z M676.1,637c3.8,0,7-1.2,9.7-3.6
			c2.6-2.4,4.4-5.8,5.4-10.1l2.8-17.7c0.5-4.4-0.2-7.8-2-10.3c-1.9-2.5-4.7-3.7-8.6-3.7c-4.3,0-7.9,1.3-10.7,4
			c-2.8,2.7-4.6,6.4-5.3,11.1l-2.4,15.4c-0.7,4.7-0.1,8.4,1.9,11.1C668.6,635.7,671.8,637,676.1,637z"/>
		<path class="st1" d="M715.8,663.2l12.5-79.2h9.3l-1.6,10.5h0.9c1.5-3.7,3.9-6.5,7.2-8.5c3.3-2,7.1-3,11.6-3c3.1,0,5.8,0.6,8.1,1.7
			c2.3,1.1,4.2,2.8,5.6,4.8s2.4,4.6,3,7.5c0.6,2.9,0.5,6.1-0.1,9.6l-2.4,15.4c-1.2,7.5-3.9,13.3-8.2,17.4c-4.3,4.1-9.6,6.2-16,6.2
			c-4.5,0-8-1-10.6-3c-2.6-2-4.1-4.9-4.5-8.5h-0.9c-0.1,1.2-0.2,2.5-0.3,3.7c-0.1,1.1-0.2,2.2-0.3,3.4c-0.1,1.2-0.3,2.3-0.4,3.3
			l-3,18.7H715.8z M743.4,637c4.4,0,8.1-1.4,11.1-4.1c3-2.7,4.8-6.4,5.6-11l2.4-15.4c0.8-4.8,0.1-8.5-2-11.1c-2.1-2.6-5.4-4-9.9-4
			c-4.1,0-7.6,1.4-10.5,4.1c-2.9,2.7-4.7,6.4-5.4,11l-2.4,15.4c-0.8,4.6-0.2,8.3,1.9,11C736.2,635.6,739.3,637,743.4,637z"/>
		<path class="st1" d="M781.8,663.2l12.5-79.2h9.3l-1.6,10.5h0.9c1.5-3.7,3.9-6.5,7.2-8.5c3.3-2,7.1-3,11.6-3c3.1,0,5.8,0.6,8.1,1.7
			c2.3,1.1,4.2,2.8,5.6,4.8s2.4,4.6,3,7.5c0.6,2.9,0.5,6.1-0.1,9.6l-2.4,15.4c-1.2,7.5-3.9,13.3-8.2,17.4c-4.3,4.1-9.6,6.2-16,6.2
			c-4.5,0-8-1-10.6-3c-2.6-2-4.1-4.9-4.5-8.5h-0.9c-0.1,1.2-0.2,2.5-0.3,3.7c-0.1,1.1-0.2,2.2-0.3,3.4c-0.1,1.2-0.3,2.3-0.4,3.3
			l-3,18.7H781.8z M809.4,637c4.4,0,8.1-1.4,11.1-4.1c3-2.7,4.8-6.4,5.6-11l2.4-15.4c0.8-4.8,0.1-8.5-2-11.1c-2.1-2.6-5.4-4-9.9-4
			c-4.1,0-7.6,1.4-10.5,4.1c-2.9,2.7-4.7,6.4-5.4,11l-2.4,15.4c-0.8,4.6-0.2,8.3,1.9,11C802.2,635.6,805.3,637,809.4,637z"/>
	</g>
	<g>
		<path class="st1" d="M818.5,338.1c0.7,0.1,1.4,0.3,2.2,0.3c29.4-0.4,56.7,7.4,81.2,23.5c30.7,20.2,50.8,48.3,60.5,83.8
			c3.7,13.5,5.2,27.3,4.8,41.6c-6.8-0.2-13.6-0.4-20.4-0.7c3.1-71.2-57.5-130.3-127.8-127.7c-0.2-6.8-0.5-13.6-0.7-20.5
			C818.3,338.3,818.4,338.2,818.5,338.1z"/>
		<path class="st1" d="M905.5,486.4c0.5-24.3-7.2-45.2-24.3-62.3c-17-17-37.9-24.7-62.1-24.1c-0.3-6.8-0.7-13.6-1-20.3
			c56.7-3.7,110.6,43.5,107.8,107.6C919.2,487.1,912.4,486.8,905.5,486.4z"/>
		<path class="st1" d="M817.7,421c40.5-3.2,70.5,31.1,66.8,67c-6.3-0.6-12.7-1.1-19-1.7c-0.4,0-0.8-0.1-1.2-0.2
			c2-25-21.5-46.8-44.8-44.7C818.9,434.6,818.3,427.8,817.7,421z"/>
	</g>
	<g>
		<path class="st1" d="M450,542.8c-8.3,0-16.2,0-24.4,0c-0.1-1.5-0.2-3-0.2-4.4c0-13.7,0-27.4,0-41.2c0-2.8-0.2-5.7-0.6-8.4
			c-0.6-3.4-1.8-6.8-5.7-7.5c-4.1-0.8-8.3-0.3-11,3.4c-1.8,2.5-3.5,5.6-3.9,8.6c-0.8,6.9-0.8,13.9-0.9,20.9c-0.1,9.4,0,18.8,0,28.5
			c-8.1,0-16,0-24.4,0c0-1.5,0-2.9,0-4.4c0-13.5,0-26.9,0-40.4c0-2.7,0-5.4-0.5-8c-0.7-3.9-1.7-7.9-6.4-8.8
			c-5.1-1-10.2,1.1-12.1,5.9c-1.7,4.4-3,9.3-3.1,14c-0.4,12.4-0.2,24.8-0.2,37.1c0,1.5,0,2.9,0,4.6c-8.2,0-16.1,0-24.5,0
			c0-1.5,0-2.8,0-4.1c0-23.3,0.1-46.6-0.1-69.8c0-3.1,0.8-4.8,3.9-5.5c2-0.4,3.9-1.2,5.8-1.5c7.5-1.2,11.5,1.3,13.5,8.6
			c0.2,0.6,0.4,1.3,0.8,2.6c5.7-7.5,12.8-11.5,21.8-11.6c9.1-0.1,16.4,3.5,21.5,11.7c5.8-7.1,12.8-10.6,21.4-11.5
			c15.8-1.7,26.7,6.7,28.7,22.4c0.4,3.6,0.6,7.2,0.6,10.9c0.1,14.4,0,28.8,0,43.2C450,539.6,450,541.1,450,542.8z"/>
		<path class="st1" d="M58.4,473.7c5.9-7.2,12.8-11,21.4-12c14.1-1.6,25.3,3.9,30.8,16.9c6.7,16,6.7,32.5-2.2,47.8
			c-8.6,14.6-23.1,18.3-38.9,18.4c-3.2,0-6.4-0.3-10.1-0.5c-0.1,1.6-0.2,3-0.2,4.5c0,9-0.1,18,0,27c0,2.7-0.6,3.8-3.6,3.8
			c-6.8-0.2-13.7-0.1-20.9-0.1c-0.1-1.7-0.2-3-0.2-4.2c0-35.5,0-71-0.1-106.5c0-3.1,0.9-4.8,3.9-5.4c2.1-0.4,4.1-1.2,6.2-1.5
			c7.4-1.2,11.5,1.7,13.2,9C57.9,471.5,58.1,472.1,58.4,473.7z M58.8,526.3c5,0,9,0.2,13-0.1c6.3-0.5,11.3-3.6,14.4-9.1
			c5.1-9.1,5.4-18.8,1.7-28.4c-1.6-4.2-5-7-9.7-7.6c-9.8-1.3-16.7,3-17.9,12.9C59,504.5,59.2,515.1,58.8,526.3z"/>
		<path class="st1" d="M519.2,532.8c-4.4,5.3-9.2,9.3-15.8,10.9c-16.4,3.9-35.1-2.5-36-25.6c-0.7-16.9-0.2-33.9-0.1-50.8
			c0-1.1,1.2-2.8,2.2-3.2c3.4-1.1,6.9-2.3,10.5-2.5c7.1-0.4,11.6,4.1,11.7,11.4c0.1,11.6,0,23.1,0.1,34.7c0,2.1,0.1,4.3,0.4,6.4
			c0.9,6.9,4.2,10.6,10,11.3c6.1,0.7,12.6-2.8,14.4-8.7c1.3-4.4,2-9.2,2.1-13.9c0.3-11.4,0.2-22.9,0-34.3c-0.1-3,0.9-4.5,3.7-5.1
			c2.9-0.6,5.7-1.6,8.6-1.9c7.1-0.5,12,3.9,12.1,11c0.1,22.2,0.1,44.4,0,66.6c0,1.1-1.1,2.8-2.1,3.1c-3.1,1.1-6.4,2-9.7,2.5
			c-4.7,0.7-8.8-2.2-10.6-7C520.1,536.3,519.8,534.7,519.2,532.8z"/>
		<path class="st1" d="M200.2,535.3c-7.2,4.6-14.6,7.1-22.5,8.4c-8.7,1.5-17.4,1.5-25.9-1c-11.8-3.5-19.8-11.1-23.3-23
			c-3.7-12.4-3.1-24.9,2.2-36.6c6.9-15.2,22.9-23.4,41.5-21.5c4.2,0.4,8.5,1.3,12.5,2.8c10.1,3.8,15.7,12.5,15.8,23.5
			c0.1,9.8-5.6,17.6-15.7,21.8c-8.5,3.5-17.4,4.3-26.5,3.9c-2.3-0.1-4.5,0-6.8,0c0.3,6.7,5.6,11.8,13.2,12.5c9.1,0.8,17.6-1,25.8-6
			C193.8,525.2,196.9,530,200.2,535.3z M150.8,499.1c7.2,1.2,14.3,1.6,21.1-1.7c3.8-1.8,5.3-5.3,4.7-9.4c-0.5-3.9-2.9-6.1-6.7-7
			C159.7,478.6,150.7,486.9,150.8,499.1z"/>
		<path class="st1" d="M717.2,513.6c1.6,7.7,6.2,11.8,13.6,12.5c8.3,0.8,12.9-0.2,25.9-5.7c3,4.8,6.1,9.6,9.5,15
			c-3,1.5-5.7,3.1-8.7,4.3c-11.4,4.7-23.3,6.4-35.5,3.9c-16.8-3.4-26-12.9-29-29.8c-1.8-10.1-1.1-20.2,3.1-29.7
			c7-16,22.9-24.5,42-22.5c4.9,0.5,9.9,1.6,14.3,3.6c12.6,5.6,17.7,21.9,11,33.9c-3.2,5.7-8.4,8.9-14.3,11.1
			c-8.1,3.1-16.4,3.7-25,3.3C722,513.6,719.7,513.6,717.2,513.6z M716.5,500c6.1-0.3,11.8-0.2,17.4-1.1c6.4-1,9.6-5.8,8.6-11.5
			c-0.9-4.9-6.3-7.8-12.4-6.7C722.2,482.2,717.3,488.7,716.5,500z"/>
		<path class="st1" d="M635,481.6c-4.2,0-7.7,0-11.5,0c0-6.3,0-12.1,0-18.5c4.1,0,8,0,12.4,0c0-5.4,0.1-10.2,0-15
			c-0.1-2.2,0.5-3.6,2.8-4.1c3.1-0.7,6.2-1.9,9.4-2.1c6.9-0.4,11.1,3.6,11.4,10.6c0.1,3.3,0,6.7,0,10.5c8.1,0,15.8,0,24.1,0
			c0,5.8,0.1,11.2-0.2,16.5c0,0.8-2.1,2-3.3,2.1c-6.7,0.2-13.4,0.1-20.6,0.1c0,6.5,0,12.7,0,18.8c0,3.8,0,7.5,0,11.3
			c0,11.5,6.2,16,17.4,12.6c1.5-0.5,3-1,4.9-1.7c1,5.5,2,10.7,2.7,16c0.1,0.9-1,2.5-1.9,2.8c-9.3,3.2-18.8,4.7-28.5,2.3
			c-11.6-2.9-18.5-11.1-18.9-23c-0.3-11.2-0.1-22.3-0.2-33.5C635,485.5,635,483.9,635,481.6z"/>
		<path class="st1" d="M556,463c4.1,0,7.8,0,12.1,0c0-4.9,0.3-9.4-0.1-13.9c-0.3-3.4,1-5,4.1-5.7c2.9-0.6,5.8-1.5,8.7-1.6
			c6.3-0.3,10.4,3.6,10.8,9.9c0.2,3.6,0,7.2,0,11.3c8.3,0,16.1,0,23.9,0c0,6.4,0,12.2,0,18.6c-7.9,0-15.6,0-23.4,0
			c0,12-0.4,23.6,0.2,35.1c0.3,6.2,5.6,9.5,11.8,8.6c3.2-0.5,6.2-1.4,9.8-2.3c1,5.2,2,10.5,2.9,15.9c0.1,0.7-1,2.2-1.8,2.4
			c-10.6,3.7-21.4,5.1-32.4,1.3c-9.5-3.4-15.2-12.1-15.3-23.8c-0.2-10.8,0-21.5,0-32.3c0-1.5,0-2.9,0-4.8c-3.9,0-7.5,0-11.3,0
			C556,475.3,556,469.5,556,463z"/>
		<path class="st1" d="M319,524.6c1,4.4,2.1,8.5,2.6,12.8c0.2,1.1-0.9,3.1-2,3.6c-7.2,3.6-14.7,4.9-22.6,2.7
			c-8.8-2.5-14-8.9-14.7-18.5c-0.3-4-0.2-8.1-0.2-12.1c0-28.8,0-57.5-0.1-86.3c0-3.1,0.9-4.8,3.9-5.4c3.2-0.6,6.3-1.5,9.5-1.6
			c6.7-0.1,10.9,3.9,11,10.7c0.2,9.5,0.1,19.1,0.1,28.6c0,19,0,37.9,0,56.9c0,8.6,1.5,9.9,10,8.8C317.3,524.8,318.1,524.7,319,524.6
			z"/>
		<path class="st1" d="M240.1,542.8c-8.2,0-16.1,0-24.4,0c-0.1-1.5-0.2-2.9-0.2-4.4c0-23.1,0.1-46.3-0.1-69.4c0-3.3,0.9-5,4.1-5.7
			c2-0.4,3.9-1.1,5.8-1.5c7.6-1.2,11.9,1.7,13.4,9.2c0.2,0.9,0.4,1.8,0.8,3.5c8.7-12.7,19.8-15.9,34-10.3c-2.3,7.2-4.6,14.1-7,21.2
			c-2.6-0.8-4.8-1.7-7.1-2.2c-7.1-1.6-14.7,2.4-16.9,9.7c-1.5,5-2.1,10.3-2.3,15.4c-0.4,9.9-0.1,19.9-0.1,29.9
			C240.1,539.6,240.1,541.1,240.1,542.8z"/>
		<path class="st1" d="M806.1,542.8c-8.3,0-16.2,0-24.4,0c-0.1-1.4-0.2-2.7-0.2-4c0-23.3,0.1-46.5-0.1-69.8c0-3.3,1-5,4.1-5.7
			c2-0.4,3.9-1.1,5.8-1.5c7.5-1.2,11.8,1.8,13.4,9.2c0.2,0.9,0.4,1.8,0.7,3.5c8.7-12.8,19.8-15.9,34-10.3
			c-2.3,7.2-4.6,14.1-6.9,21.2c-2.5-0.8-4.6-1.5-6.8-2.1c-7.7-1.9-15.4,2.3-17.6,10.3c-1.3,5-1.8,10.3-2,15.5
			c-0.3,9.7-0.1,19.4-0.1,29.1C806.1,539.6,806.1,541.1,806.1,542.8z"/>
	</g>
</g>
</svg>
