<svg xmlns="http://www.w3.org/2000/svg" viewBox="0 0 214.28 155.66"><defs><style>.cls-1{fill:#393939;}</style></defs><g id="Layer_2" data-name="Layer 2"><g id="Layer_1-2" data-name="Layer 1"><path d="M214.28,41.74c-3.77,0-7.4,0-11,0a1.64,1.64,0,0,1-1.09-.84q-6.74-13.63-13.4-27.31a3.17,3.17,0,0,0-.21-.36V41.64h-10V0h2.66c3.08,0,6.16,0,9.24,0a1.66,1.66,0,0,1,1.76,1.05c4.27,8.53,9.07,16.8,12.4,25.78,0,.07.1.13,0,0-.23-8.72-.46-17.65-.69-26.69h10.35Z"/><path d="M33.82,15.43H47.27V.09c.51,0,.9-.06,1.29-.06,2.87,0,5.75.05,8.63,0,1.09,0,1.33.33,1.33,1.36,0,9,0,18.07,0,27.11V41.68H47.31V25.43H33.82V41.66H22.64V0H24.9c2.56,0,5.12,0,7.68,0,1,0,1.27.33,1.26,1.3-.05,4.24,0,8.47,0,12.71Z"/><path d="M101.77,41.68h-12c-.78-2.79-1.61-5.58-2.31-8.4a1.28,1.28,0,0,0-1.53-1.18c-3.15,0-6.3,0-9.51,0C75.72,35,75,37.86,74.36,40.69A1.14,1.14,0,0,1,73,41.76c-3.43,0-6.87,0-10.44,0,.14-.62.23-1.12.37-1.6Q68.57,20.72,74.2,1.27A1.46,1.46,0,0,1,75.94,0c4.16,0,8.32,0,12.48,0,.66,0,1.09.1,1.31.85q6,20.09,12,40.17C101.73,41.22,101.73,41.42,101.77,41.68ZM78,23.72h7.53C84.23,18.61,83,13.61,81.7,8.61l-.21,0Z"/><path d="M172.05,41.68H144.27V.11h26.92V9.26h-1.46c-4.4,0-8.8,0-13.2,0-.88,0-1.21.22-1.17,1.15.07,1.75,0,3.5,0,5.4h14.87v9.14H155.38v5.18a11.61,11.61,0,0,1,0,1.32c-.12.93.3,1.14,1.17,1.13,4.72,0,9.43,0,14.15,0h1.36Z"/><path d="M100.24,0c4,0,7.78,0,11.58.05.32,0,.81.65.93,1.08,1.57,5.66,3.13,11.31,4.61,17,1.08,4.13,2,8.3,3.08,12.62.42-1.91.77-3.7,1.23-5.46q3.19-12.22,6.48-24.42c.09-.34.58-.82.89-.82,3.67-.06,7.35,0,11.2,0-.2.65-.35,1.17-.52,1.69Q133.36,21.17,127,40.65c-.26.81-.6,1.13-1.48,1.11q-5.52-.07-11,0a1.24,1.24,0,0,1-1.45-1q-6.24-19.82-12.53-39.61C100.43.84,100.37.54,100.24,0Z"/><path class="cls-1" d="M195.08,141.48l15.21,13-.9,1a5,5,0,0,1-.51-.41,147.87,147.87,0,0,0-59.23-35.2,125.85,125.85,0,0,0-29.12-5.48,153.65,153.65,0,0,0-25.38.47A153.55,153.55,0,0,0,52.9,125a140.23,140.23,0,0,0-42.11,25.58,64.88,64.88,0,0,0-4.62,5.11l-1.23-1a6.63,6.63,0,0,1,.5-.62c4.76-4.32,9.52-8.65,14.33-12.93a2.34,2.34,0,0,0,.95-1.9q0-17.82,0-35.64c0-1.06-.32-1.38-1.37-1.37-4.15,0-8.32,0-12.48,0a2.74,2.74,0,0,1-1,0,1,1,0,0,1-.51-.6c0-.11.29-.4.5-.47a2.54,2.54,0,0,1,.83,0H209.06a2.54,2.54,0,0,1,.83,0c.21.07.53.36.49.47a1,1,0,0,1-.51.6,2.73,2.73,0,0,1-1,0H197.16c-1.85,0-1.85,0-1.85,1.78q0,17.94,0,35.88A10.8,10.8,0,0,1,195.08,141.48Zm-48.43-23.73c0-.59.07-1,.07-1.3,0-4.28,0-8.56,0-12.83,0-1.16-.4-1.39-1.44-1.39q-37.36,0-74.73,0c-1.09,0-1.45.32-1.44,1.43,0,4.43,0,8.87,0,13.31a12.52,12.52,0,0,0,.13,1.29C95.09,111.88,120.77,110.55,146.65,117.75Zm47.42,23.12c.05-.43.1-.67.1-.9q0-18.28,0-36.56c0-.9-.34-1.18-1.21-1.18-3.19,0-6.39.07-9.58,0-1.24,0-1.54.38-1.53,1.57,0,9.11,0,18.22,0,27.33a9.82,9.82,0,0,1-.24,1.6Zm-172.26-.76a9.47,9.47,0,0,0,1-.44c3.63-2.26,7.24-4.54,10.89-6.77a1.54,1.54,0,0,0,.75-1.58c0-9.24,0-18.47,0-27.71,0-1.16-.41-1.4-1.45-1.38-3.19,0-6.39,0-9.59,0-1.57,0-1.58,0-1.58,1.59v36.27Zm146.62-14.33c0-.55.07-.94.07-1.32,0-6.91,0-13.82,0-20.73,0-1.15-.34-1.51-1.49-1.5-5.92,0-11.83,0-17.74,0-1.2,0-1.47.44-1.46,1.54,0,4.28.07,8.55,0,12.82a1.77,1.77,0,0,0,1.46,2c5.92,2.15,11.8,4.41,17.69,6.63ZM48.22,125.5c.46-.13.76-.19,1.05-.29C55.17,123.14,61.06,121,67,119A1.32,1.32,0,0,0,68,117.49c0-4.59-.05-9.19,0-13.78,0-1.15-.32-1.5-1.47-1.49q-8.44.09-16.9,0c-1.15,0-1.49.33-1.48,1.48,0,6.83,0,13.66,0,20.49Zm-12.68,6.12a3.89,3.89,0,0,0,.69-.17c3.4-1.66,6.81-3.31,10.18-5a1.78,1.78,0,0,0,.67-1.33c0-7.18,0-14.37,0-21.56,0-1-.34-1.31-1.31-1.29-2.92,0-5.83.07-8.75,0-1.23,0-1.55.39-1.54,1.58,0,8.83,0,17.65,0,26.48Zm145.08.53a2,2,0,0,0,.14-.41q0-14.28,0-28.55c0-.88-.48-1-1.15-1-3,0-5.91,0-8.87,0-.89,0-1.15.31-1.15,1.19q0,11,0,21.95a1.52,1.52,0,0,0,1,1.56c3,1.54,6,3.15,9,4.73C179.92,131.83,180.24,132,180.62,132.15Z"/><path d="M76.52,64.85c.21-4.23,1-8.23,3.3-11.8A15,15,0,0,1,95,45.88c6.28.69,10.43,4.37,12.56,10.22a23.82,23.82,0,0,1-.11,16.78c-2.58,7-8.53,10.76-16.07,10.4-6.43-.3-12-5-13.78-12A63.86,63.86,0,0,1,76.52,64.85Zm29.62.78c0-4.91-.78-8.46-2.76-11.67a12.24,12.24,0,0,0-21.29.27,19.56,19.56,0,0,0-2.5,8.18c-.48,5.07.42,9.82,3.57,13.94a12.11,12.11,0,0,0,18.91.51A17.8,17.8,0,0,0,106.14,65.63Z"/><path d="M64.22,65.16c3,1.24,4.45,3.62,5.19,6.47,1,3.65,1.83,7.33,2.75,11a.83.83,0,0,1-.23.08c-2.28.12-2.33.13-2.9-2.1-.66-2.55-1.14-5.14-1.85-7.67a14.92,14.92,0,0,0-1.65-3.82c-1.52-2.42-4-3-6.66-3.07-1.32,0-2.64,0-4,0-1-.06-1.3.23-1.29,1.26.05,4.63,0,9.27,0,13.9V82.7H51.1c0-.41-.08-.82-.08-1.24,0-11.11,0-22.22,0-33.33,0-.94.25-1.32,1.21-1.46a32.67,32.67,0,0,1,11.33-.12c4.44.89,7.06,3.65,7.68,8a9.47,9.47,0,0,1-5.29,9.78C65.43,64.61,64.92,64.83,64.22,65.16ZM53.64,48.76c0,4.87,0,9.62,0,14.37,0,.65.31.82.88.81,1.28,0,2.57.1,3.83,0A25,25,0,0,0,64,63c3.15-1.09,4.82-4,4.66-7.47a6.83,6.83,0,0,0-5.24-6.64A20.66,20.66,0,0,0,53.64,48.76Z"/><path d="M136,62.49h14.44v2.19H136.11c0,.53-.09.91-.09,1.3,0,4.44,0,8.88,0,13.31,0,1,.29,1.29,1.29,1.28,4.44,0,8.88,0,13.31,0h1.52v2.13H133.49V46.37h16.17c1.91,0,2,.07,1.53,2.22h-1.37c-4.2,0-8.4,0-12.6,0-.94,0-1.24.27-1.23,1.22C136,53.94,136,58.1,136,62.49Z"/><path d="M24.27,46.8c4-.62,8-1.08,12-.26,4.67,1,7.39,3.78,8.07,8.31a10.36,10.36,0,0,1-5.32,11c-3.29,1.78-6.85,2-10.48,1.69-.52,0-1-.13-1.72-.23V82.71H24.27Zm2.52,9.94c0,2.4,0,4.8,0,7.2,0,.7.17,1.12.93,1.23a17.24,17.24,0,0,0,9-.64c3.45-1.34,5.23-4.34,5.07-8.4A7.38,7.38,0,0,0,36,48.89a21,21,0,0,0-8.44-.27c-.7.08-.81.45-.8,1.05C26.8,52,26.79,54.38,26.79,56.74Z"/><path d="M182.82,79.38c.26.7.49,1.32.82,2.23-1.79.46-3.45,1-5.15,1.29a22.11,22.11,0,0,1-10.32-.42c-6.45-2-10.72-7.42-11.45-14.41a24.68,24.68,0,0,1,.8-10,17.19,17.19,0,0,1,16-12.27c4.05-.19,7.45.36,9.84,1.64l-.7,1.86c-2.15-.42-4.16-.94-6.2-1.18a16.53,16.53,0,0,0-8.22,1.14,12.91,12.91,0,0,0-7.4,7.3A20.72,20.72,0,0,0,160.56,72c2,5.37,6.07,8.14,11.65,8.83A20.85,20.85,0,0,0,182.82,79.38Z"/><path d="M199.49,48.62H187.66V46.45h26.18v2.1H202.12V82.67h-2.63Z"/><path d="M110.07,82.45l.44-1.66c2.08,0,4,.2,5.85.06a4.65,4.65,0,0,0,4.31-3.47,21.24,21.24,0,0,0,1-5.75c.11-7.87.05-15.75.06-23.62V46.47h2.59c0,.41.06.8.06,1.18,0,8,.08,15.92,0,23.87a22.81,22.81,0,0,1-1.14,6.55,7.36,7.36,0,0,1-6.07,5A11.92,11.92,0,0,1,110.07,82.45Z"/><path d="M18.5,26.1v2.4H0V26.17H7.59V17.23H0V14.76H18.48v2.38H10v9Z"/><path d="M16.51,8.31V.51h2V10.86H0V.89H2V8.31H7.79v-7h2v7Z"/><path d="M2,38.5v5.59H0V30.42H2V36H18.47V38.5Z"/></g></g></svg>