<svg xmlns="http://www.w3.org/2000/svg" viewBox="0 0 254.64 254.64"><defs><style>.cls-1{fill:#231f20;}.cls-2{fill:#fff;}.cls-3{fill:#ffcd05;}</style></defs><g id="Layer_2" data-name="Layer 2"><g id="Layer_1-2" data-name="Layer 1"><rect class="cls-1" width="254.64" height="254.64"/><path class="cls-2" d="M234.46,91.23c-3.77,0-7.4,0-11,0a1.64,1.64,0,0,1-1.09-.84Q215.6,76.72,208.93,63c-.05-.1-.11-.19-.21-.35V91.12h-10V49.51h2.66c3.08,0,6.16,0,9.24,0a1.66,1.66,0,0,1,1.75,1c4.28,8.53,9.08,16.81,12.41,25.79,0,.07.1.12,0,0-.22-8.71-.45-17.64-.68-26.68h10.35Z"/><path class="cls-2" d="M54,64.91H67.45V49.58c.51,0,.9-.06,1.29-.06,2.87,0,5.75,0,8.63,0,1.09,0,1.33.33,1.33,1.36,0,9,0,18.07,0,27.11V91.17H67.49V74.92H54V91.15H42.82V49.51h2.26c2.56,0,5.12.05,7.68,0,1,0,1.26.34,1.25,1.31,0,4.23,0,8.47,0,12.71Z"/><path class="cls-2" d="M122,91.17H110c-.78-2.8-1.61-5.59-2.31-8.41a1.29,1.29,0,0,0-1.53-1.18c-3.15.06-6.31,0-9.51,0-.71,2.93-1.42,5.75-2.07,8.58a1.14,1.14,0,0,1-1.36,1.07c-3.43-.06-6.87,0-10.44,0,.14-.62.22-1.12.37-1.6q5.64-19.44,11.27-38.87a1.48,1.48,0,0,1,1.74-1.27c4.16,0,8.32,0,12.48,0,.66,0,1.09.09,1.31.85q6,20.08,12,40.16C121.91,90.71,121.91,90.91,122,91.17Zm-23.78-18h7.53c-1.29-5.11-2.56-10.11-3.82-15.12l-.21,0Z"/><path class="cls-2" d="M192.23,91.17H164.45V49.6h26.92v9.15h-1.46c-4.4,0-8.8,0-13.2,0-.88,0-1.21.22-1.17,1.14.07,1.75,0,3.51,0,5.41h14.87v9.13H175.56V79.6a11.61,11.61,0,0,1,0,1.32c-.12.93.3,1.14,1.17,1.13,4.71,0,9.43,0,14.15,0h1.36Z"/><path class="cls-2" d="M120.42,49.52c4,0,7.78,0,11.58,0,.32,0,.81.65.93,1.08,1.57,5.65,3.13,11.31,4.61,17,1.08,4.13,2,8.29,3.07,12.62.43-1.91.78-3.7,1.24-5.47q3.19-12.21,6.48-24.41a1.33,1.33,0,0,1,.89-.83c3.67,0,7.35,0,11.19,0-.19.65-.34,1.17-.51,1.68q-6.36,19.47-12.69,38.94a1.31,1.31,0,0,1-1.49,1.11c-3.67-.06-7.35,0-11,0a1.24,1.24,0,0,1-1.45-1Q127,70.43,120.71,50.62C120.61,50.33,120.55,50,120.42,49.52Z"/><path class="cls-3" d="M215.26,191q7.47,6.38,15.21,13l-.9,1c-.21-.17-.37-.28-.51-.41a147.87,147.87,0,0,0-59.23-35.2,126.39,126.39,0,0,0-29.12-5.49,154.75,154.75,0,0,0-25.38.48,153.19,153.19,0,0,0-42.25,10.12A140.23,140.23,0,0,0,31,200a63.15,63.15,0,0,0-4.62,5.11l-1.23-1a3.93,3.93,0,0,1,.5-.62c4.76-4.32,9.52-8.65,14.33-12.93a2.3,2.3,0,0,0,.94-1.9q0-17.82,0-35.64c0-1.06-.32-1.38-1.37-1.37-4.16,0-8.32,0-12.48,0a3,3,0,0,1-.95,0,1,1,0,0,1-.51-.61c0-.1.29-.39.5-.46a2.54,2.54,0,0,1,.83,0H229.24a2.54,2.54,0,0,1,.83,0c.21.07.52.36.49.47a1,1,0,0,1-.51.6,2.79,2.79,0,0,1-1,0H217.34c-1.85,0-1.85,0-1.85,1.79q0,17.94,0,35.88A10.66,10.66,0,0,1,215.26,191Zm-48.43-23.72c0-.6.07-1,.07-1.3,0-4.28,0-8.56,0-12.84,0-1.16-.4-1.39-1.44-1.39q-37.37,0-74.73,0c-1.09,0-1.45.33-1.44,1.43.05,4.44,0,8.88,0,13.32a12.8,12.8,0,0,0,.13,1.29C115.27,161.36,141,160,166.83,167.24Zm47.42,23.12c.05-.44.1-.67.1-.91q0-18.27,0-36.55c0-.9-.33-1.19-1.2-1.18-3.19,0-6.39.07-9.58,0-1.24,0-1.54.38-1.53,1.58q.06,13.66,0,27.33a10,10,0,0,1-.24,1.6ZM42,189.6c.42-.19.71-.29,1-.44,3.63-2.26,7.24-4.55,10.89-6.77a1.54,1.54,0,0,0,.75-1.58c0-9.24,0-18.47,0-27.71,0-1.16-.41-1.4-1.45-1.39-3.19,0-6.39,0-9.59,0-1.57,0-1.58,0-1.58,1.59V189.6ZM188.6,175.27c0-.56.08-.94.08-1.32,0-6.91,0-13.82,0-20.73,0-1.16-.35-1.52-1.49-1.51q-8.88.07-17.74,0c-1.2,0-1.47.44-1.46,1.54,0,4.27.07,8.55,0,12.82a1.78,1.78,0,0,0,1.46,2c5.92,2.14,11.8,4.4,17.69,6.62ZM68.4,175c.46-.13.76-.2,1-.3,5.9-2.07,11.79-4.16,17.71-6.18A1.32,1.32,0,0,0,88.22,167c0-4.6,0-9.19,0-13.78,0-1.16-.32-1.5-1.47-1.49q-8.45.07-16.9,0c-1.15,0-1.49.33-1.49,1.49,0,6.83,0,13.66,0,20.49Zm-12.68,6.12a6.23,6.23,0,0,0,.68-.17c3.41-1.67,6.82-3.31,10.19-5a1.74,1.74,0,0,0,.66-1.33c0-7.19,0-14.38,0-21.57,0-1-.34-1.3-1.31-1.28-2.92,0-5.83.07-8.75,0-1.23,0-1.55.38-1.54,1.58,0,8.82,0,17.65,0,26.48Zm145.08.53a2.29,2.29,0,0,0,.14-.41q0-14.28,0-28.55c0-.89-.49-1-1.15-1-3,0-5.92,0-8.87,0-.9,0-1.15.32-1.15,1.2q0,11,0,22a1.5,1.5,0,0,0,1,1.55c3,1.55,6,3.16,9,4.74C200.1,181.32,200.41,181.45,200.8,181.64Z"/><path class="cls-2" d="M96.69,114.34c.21-4.23,1-8.24,3.31-11.8a15,15,0,0,1,15.15-7.18c6.29.69,10.44,4.37,12.57,10.23a23.82,23.82,0,0,1-.11,16.78c-2.58,7-8.53,10.76-16.07,10.4-6.43-.31-12-5-13.79-12C97.2,118.71,97,116.5,96.69,114.34Zm29.63.77c0-4.9-.78-8.45-2.76-11.67a12.24,12.24,0,0,0-21.29.28,19.57,19.57,0,0,0-2.51,8.18c-.47,5.07.43,9.82,3.58,13.94a12.11,12.11,0,0,0,18.91.5A17.76,17.76,0,0,0,126.32,115.11Z"/><path class="cls-2" d="M84.4,114.65c3,1.23,4.44,3.61,5.19,6.47,1,3.65,1.83,7.33,2.75,11a.77.77,0,0,1-.23.09c-2.28.12-2.33.13-2.91-2.1-.65-2.55-1.14-5.14-1.84-7.68a15.23,15.23,0,0,0-1.65-3.82c-1.52-2.42-4-3-6.66-3.06-1.32,0-2.65,0-4,0-1,0-1.31.24-1.29,1.26,0,4.64,0,9.27,0,13.91v1.47H71.28c0-.41-.09-.83-.09-1.24q0-16.66,0-33.33c0-1,.25-1.32,1.21-1.46A32.67,32.67,0,0,1,83.71,96c4.44.9,7.05,3.66,7.68,8a9.45,9.45,0,0,1-5.29,9.77C85.61,114.1,85.1,114.32,84.4,114.65ZM73.82,98.25c0,4.87,0,9.62,0,14.36,0,.65.3.82.88.82,1.28,0,2.57.1,3.83,0a25,25,0,0,0,5.62-.9c3.15-1.08,4.82-4,4.66-7.46a6.82,6.82,0,0,0-5.24-6.64C80.38,97.42,77.18,97.67,73.82,98.25Z"/><path class="cls-2" d="M156.19,112h14.44v2.19H156.29c0,.53-.09.91-.09,1.29,0,4.44,0,8.88,0,13.32,0,1,.29,1.29,1.29,1.27,4.43-.05,8.87,0,13.31,0h1.52v2.14H153.67V95.85h16.17c1.91,0,2,.08,1.53,2.23H170c-4.2,0-8.4,0-12.6,0-.94,0-1.24.26-1.23,1.22C156.22,103.43,156.19,107.59,156.19,112Z"/><path class="cls-2" d="M44.45,96.29c4-.63,8-1.09,12-.26,4.67,1,7.38,3.78,8.07,8.31a10.36,10.36,0,0,1-5.32,11A18.06,18.06,0,0,1,48.69,117c-.52-.05-1-.14-1.72-.23V132.2H44.45ZM47,106.23c0,2.4,0,4.8,0,7.19,0,.71.17,1.13.93,1.24a17.35,17.35,0,0,0,9-.64c3.45-1.35,5.23-4.34,5.07-8.41a7.37,7.37,0,0,0-5.73-7.23,21.05,21.05,0,0,0-8.44-.27c-.7.07-.81.45-.8,1C47,101.51,47,103.87,47,106.23Z"/><path class="cls-2" d="M203,128.87c.26.69.48,1.32.82,2.23-1.79.45-3.45,1-5.15,1.28a21.89,21.89,0,0,1-10.33-.42c-6.44-2-10.71-7.42-11.44-14.4a24.67,24.67,0,0,1,.8-10,17.2,17.2,0,0,1,16.05-12.28c4.05-.18,7.44.37,9.84,1.65l-.71,1.86c-2.14-.42-4.15-.94-6.19-1.19a16.59,16.59,0,0,0-8.23,1.15,12.93,12.93,0,0,0-7.39,7.29,20.74,20.74,0,0,0-.33,15.45c2,5.37,6.07,8.14,11.65,8.82A20.85,20.85,0,0,0,203,128.87Z"/><path class="cls-2" d="M219.67,98.1H207.84V95.94H234V98H222.3v34.12h-2.63Z"/><path class="cls-2" d="M130.25,131.94l.43-1.66c2.09,0,4,.2,5.86.06a4.65,4.65,0,0,0,4.31-3.47,21.24,21.24,0,0,0,1-5.75c.11-7.87.05-15.75.06-23.63V96h2.59c0,.41.06.79.06,1.18,0,8,.08,15.91-.05,23.87a22.87,22.87,0,0,1-1.14,6.55,7.36,7.36,0,0,1-6.08,5A12,12,0,0,1,130.25,131.94Z"/><path class="cls-2" d="M38.68,75.59V78H20.22V75.66h7.55v-9H20.22V64.25H38.66v2.38H30.13v9Z"/><path class="cls-2" d="M36.69,57.8V50h2V60.34H20.18v-10h2V57.8H28v-7h2v7Z"/><path class="cls-2" d="M22.19,88v5.6h-2V79.91h2v5.55H38.65V88Z"/><path class="cls-1" d="M98.17,73.21l3.5-15.1.21,0c1.26,5,2.53,10,3.82,15.12Z"/><path class="cls-1" d="M166.83,167.24c-25.88-7.2-51.56-5.88-77.35.51a12.8,12.8,0,0,1-.13-1.29c0-4.44,0-8.88,0-13.32,0-1.1.35-1.43,1.44-1.43q37.36,0,74.73,0c1,0,1.46.23,1.44,1.39-.07,4.28,0,8.56,0,12.84C166.9,166.29,166.86,166.64,166.83,167.24Z"/><path class="cls-1" d="M214.25,190.36l-12.43-8.15a10,10,0,0,0,.24-1.6q0-13.67,0-27.33c0-1.2.29-1.61,1.53-1.58,3.19.09,6.39.05,9.58,0,.87,0,1.21.28,1.2,1.18q0,18.27,0,36.55C214.35,189.69,214.3,189.92,214.25,190.36Z"/><path class="cls-1" d="M42,189.6V153.32c0-1.58,0-1.58,1.58-1.59,3.2,0,6.4,0,9.59,0,1,0,1.46.23,1.45,1.39,0,9.24,0,18.47,0,27.71a1.54,1.54,0,0,1-.75,1.58c-3.65,2.22-7.26,4.51-10.89,6.77C42.7,189.31,42.41,189.41,42,189.6Z"/><path class="cls-1" d="M188.6,175.27l-1.43-.57c-5.89-2.22-11.77-4.48-17.69-6.62a1.78,1.78,0,0,1-1.46-2c.07-4.27,0-8.55,0-12.82,0-1.1.26-1.55,1.46-1.54q8.86.07,17.74,0c1.14,0,1.5.35,1.49,1.51-.05,6.91,0,13.82,0,20.73C188.68,174.33,188.64,174.71,188.6,175.27Z"/><path class="cls-1" d="M68.4,175v-1.3c0-6.83,0-13.66,0-20.49,0-1.16.34-1.5,1.49-1.49q8.44.07,16.9,0c1.15,0,1.49.33,1.47,1.49-.06,4.59,0,9.18,0,13.78a1.32,1.32,0,0,1-1.06,1.53c-5.92,2-11.81,4.11-17.71,6.18C69.16,174.79,68.86,174.86,68.4,175Z"/><path class="cls-1" d="M55.72,181.11v-1.34c0-8.83,0-17.66,0-26.48,0-1.2.31-1.62,1.54-1.58,2.92.08,5.83,0,8.75,0,1,0,1.32.27,1.31,1.28,0,7.19,0,14.38,0,21.57a1.74,1.74,0,0,1-.66,1.33c-3.37,1.73-6.78,3.37-10.19,5A6.23,6.23,0,0,1,55.72,181.11Z"/><path class="cls-1" d="M200.8,181.64c-.39-.19-.7-.32-1-.48-3-1.58-6-3.19-9-4.74a1.5,1.5,0,0,1-1-1.55q0-11,0-22c0-.88.25-1.21,1.15-1.2,3,0,5.91,0,8.87,0,.66,0,1.16.06,1.15,1q0,14.28,0,28.55A2.29,2.29,0,0,1,200.8,181.64Z"/><path class="cls-1" d="M126.32,115.11a17.76,17.76,0,0,1-4.07,11.23,12.11,12.11,0,0,1-18.91-.5c-3.15-4.12-4-8.87-3.58-13.94a19.57,19.57,0,0,1,2.51-8.18,12.24,12.24,0,0,1,21.29-.28C125.54,106.66,126.35,110.21,126.32,115.11Z"/><path class="cls-1" d="M73.82,98.25c3.36-.58,6.56-.83,9.74.15A6.82,6.82,0,0,1,88.8,105c.16,3.43-1.51,6.38-4.66,7.46a25,25,0,0,1-5.62.9c-1.26.13-2.55,0-3.83,0-.58,0-.88-.17-.88-.82C73.83,107.87,73.82,103.12,73.82,98.25Z"/><path class="cls-1" d="M47,106.23c0-2.36,0-4.72,0-7.07,0-.6.1-1,.8-1a21.05,21.05,0,0,1,8.44.27,7.37,7.37,0,0,1,5.73,7.23c.16,4.07-1.62,7.06-5.07,8.41a17.35,17.35,0,0,1-9,.64c-.76-.11-.94-.53-.93-1.24C47,111,47,108.63,47,106.23Z"/></g></g></svg>